<svg xmlns="http://www.w3.org/2000/svg"  fill="none" viewBox="0 0 74 57">
    <path fill="#881414" d="M73.657.005L71.109 0 60.044 10.865l-9.117-8.929L52.911 0h-2.273L40.353 10.14l7.414 7.24 5.348-5.188-3.28-3.258-1.217 1.206 2.067 1.81-2.918 2.897-4.983-4.827 7.05-6.877 9.115 8.928-11.182 10.98-9.846-9.653L24.187.005h-2.31l25.89 25.46L73.657.004zM73.649 57l.008-.008-25.89-25.458-25.89 25.458.009.008h2.309l-.008-.008L35.37 46.013l9.237 9.049L42.621 57h2.184l3.206-3.145 7.17-6.997-7.414-7.24-5.348 5.188 3.282 3.259 1.216-1.207-2.067-2.052 2.917-2.895 4.984 4.947-7.05 6.877-9.116-8.929 11.182-10.98 23.459 23.046-.13.128h2.553zM73.9 48.992v-2.776L56.275 28.962 73.9 11.709V8.934L53.48 28.962l20.42 20.03z"/>
    <path fill="#881414" d="M73.901 18.345L63.083 28.963 73.901 39.58v-2.775l-8.022-7.843L73.9 21.12v-2.775zM62.831 57l.13-.128-4.984-4.826L52.899 57h-2.273l7.35-7.247 7.416 7.24-.008.007h-2.553zM30.274 57h2.308l-.008-.008 2.917-2.894 2.067 2.05 1.215-1.206-3.282-3.258-5.348 5.188.131.128z"/>
    <path fill="#881414" fill-rule="evenodd" d="M21.026 17.741L9.601 28.961l11.425 11.223 11.426-11.222-11.426-11.22zm-.121 19.667l-8.508-8.446 8.508-8.446 8.508 8.446-8.508 8.446z" clip-rule="evenodd"/>
    <path fill="#881414" fill-rule="evenodd" d="M0 28.962L21.027 8.33l21.028 20.632-21.028 20.634L0 28.962zm21.027 17.857L2.795 28.962l18.232-17.857L39.26 28.962 21.027 46.819z" clip-rule="evenodd"/>
    <path fill="#881414" d="M30.262 0l2.312.005 4.984 4.947L42.634 0h2.185l-7.261 7.125L30.262 0zM65.392.005L62.844 0l-2.8 2.78L57.977.73l-1.215 1.206 3.282 3.257L65.392.005z"/>
</svg>
