<svg xmlns="http://www.w3.org/2000/svg"  fill="none" viewBox="0 0 74 57">
    <path fill="#881414" d="M.244.005L2.792 0l11.065 10.865 9.117-8.929L20.99 0h2.273l10.285 10.14-7.414 7.24-5.348-5.188 3.28-3.258 1.217 1.206-2.067 1.81 2.918 2.897 4.983-4.827-7.05-6.877-9.116 8.928 11.183 10.98 9.846-9.653L49.714.005h2.31l-25.89 25.46L.244.004zM.252 57l-.008-.008 25.89-25.458 25.89 25.458-.008.008h-2.31l.008-.008-11.182-10.979-9.238 9.049L31.28 57h-2.184l-3.206-3.145-7.17-6.997 7.414-7.24 5.348 5.188-3.282 3.259-1.215-1.207 2.066-2.052-2.917-2.895-4.984 4.947 7.05 6.877 9.116-8.929-11.182-10.98L2.675 56.872l.13.128H.252zM.001 48.992v-2.776l17.625-17.254L0 11.709V8.934l20.42 20.028L0 48.992z"/>
    <path fill="#881414" d="M0 18.345l10.818 10.618L0 39.58v-2.775l8.022-7.843L0 21.12v-2.775zM11.07 57l-.13-.128 4.984-4.826L21.002 57h2.273l-7.35-7.247-7.416 7.24.008.007h2.553zM43.627 57h-2.308l.008-.008-2.917-2.894-2.067 2.05-1.215-1.206 3.282-3.258 5.348 5.188-.131.128z"/>
    <path fill="#881414" fill-rule="evenodd" d="M52.875 17.741L64.3 28.961 52.875 40.185 41.449 28.962l11.426-11.22zm.121 19.667l8.508-8.446-8.508-8.446-8.508 8.446 8.508 8.446z" clip-rule="evenodd"/>
    <path fill="#881414" fill-rule="evenodd" d="M73.901 28.962L52.874 8.33 31.846 28.962l21.028 20.634L73.9 28.962zM52.874 46.819l18.232-17.857-18.232-17.857-18.232 17.857 18.232 17.857z" clip-rule="evenodd"/>
    <path fill="#881414" d="M43.64 0l-2.313.005-4.984 4.947L31.267 0h-2.185l7.261 7.125L43.64 0zM8.51.005L11.056 0l2.8 2.78L15.924.73l1.215 1.206-3.282 3.257L8.51.005z"/>
</svg>
