<svg width="80" height="20" viewBox="0 0 80 20" fill="none" xmlns="http://www.w3.org/2000/svg">
<g clip-path="url(#clip0)">
<path fill-rule="evenodd" clip-rule="evenodd" d="M67.58 19.7006C72.9384 21.0365 78.3649 17.7763 79.7007 12.4191C81.0364 7.06168 77.7761 1.63486 72.418 0.299246C67.0612 -1.03637 61.6347 2.22422 60.2996 7.58198C58.9632 12.9388 62.2238 18.365 67.58 19.7006ZM72.6749 5.63606C74.1229 6.12593 75.1819 6.86026 74.9739 8.22625C74.8233 9.2262 74.2588 9.71029 73.5095 9.88C74.5384 10.4061 75.0621 11.2129 74.5633 12.6117C73.9443 14.3488 72.4737 14.4954 70.5181 14.132L70.0434 16L68.8966 15.7193L69.365 13.8763C69.0677 13.8038 68.764 13.7268 68.451 13.6434L67.981 15.4951L66.8354 15.2143L67.3101 13.3428C67.203 13.3158 67.0953 13.2882 66.9868 13.2605C66.8238 13.2187 66.6591 13.1765 66.4925 13.1355L65 12.7701L65.5694 11.4808C65.5694 11.4808 66.4144 11.7015 66.403 11.6852C66.7276 11.7641 66.8717 11.5562 66.9285 11.4176L67.6785 8.4646C67.7066 8.47124 67.7342 8.47802 67.7608 8.48457C67.774 8.48782 67.787 8.49102 67.7997 8.49412C67.754 8.47615 67.7125 8.4646 67.6805 8.45658L68.2155 6.34856C68.2296 6.10924 68.1456 5.80737 67.6811 5.69348C67.6991 5.68161 66.8482 5.49009 66.8482 5.49009L67.1533 4.28707L68.7349 4.67493L68.7336 4.6807C68.9714 4.73877 69.2164 4.79394 69.4659 4.84976L69.936 3L71.0822 3.2807L70.6216 5.09422C70.9293 5.1632 71.239 5.23281 71.5405 5.30659L71.9978 3.50495L73.1446 3.78565L72.6749 5.63606ZM69.0473 12.345C69.9831 12.5877 72.0283 13.1182 72.3535 11.835C72.6867 10.5229 70.7032 10.0858 69.7353 9.87248C69.6271 9.84864 69.5317 9.8276 69.4535 9.80845L68.8237 12.288C68.8879 12.3036 68.9631 12.3231 69.0473 12.345ZM69.9297 8.72182C70.71 8.92631 72.4118 9.37235 72.7082 8.20603C73.011 7.01305 71.3569 6.65344 70.5491 6.47781C70.4582 6.45806 70.3781 6.44063 70.3126 6.4246L69.7416 8.67344C69.7956 8.68664 69.8588 8.70323 69.9297 8.72182Z" fill="white"/>
<path d="M59.5 9.99994C59.5 15.2467 55.2468 19.5 50.0001 19.5C44.7533 19.5 40.5 15.2467 40.5 9.99994C40.5 4.75327 44.7533 0.5 50.0001 0.5C55.2467 0.5 59.5 4.75327 59.5 9.99994Z" stroke="white"/>
<path d="M45.4187 7.12976C46.5607 7.17868 47.4457 7.65988 48.0085 8.66648C48.3027 9.19269 48.9291 9.41922 49.4842 9.181C50.0319 8.94595 50.3029 8.33744 50.1144 7.77226C50.0662 7.62753 49.9902 7.49729 49.9156 7.36601C49.5851 6.78426 49.4536 6.15647 49.5593 5.50192C49.7136 4.54645 50.2262 3.81458 51.0861 3.34697C51.5544 3.09237 52.0665 2.9704 52.6048 3.0061C54.5028 3.13195 55.7472 4.76572 55.359 6.55414C55.2106 7.23767 54.8542 7.82202 54.2731 8.24596C53.7066 8.65924 53.0775 8.87871 52.3648 8.83852C51.913 8.81304 51.4606 9.1229 51.2861 9.5625C51.1129 9.9991 51.2468 10.5225 51.5954 10.8301C51.8902 11.0904 52.2365 11.1517 52.6166 11.1574C53.9625 11.1777 55.1016 12.0714 55.4394 13.3557C55.8815 15.0359 54.7155 16.7471 52.9737 16.9742C51.3897 17.1808 49.9281 16.126 49.6678 14.5744C49.5474 13.8566 49.6712 13.1766 50.0667 12.5539C50.3519 12.1049 50.2914 11.5285 49.9206 11.1539C49.5437 10.7732 48.9427 10.701 48.4831 10.9566C48.2168 11.1047 48.0896 11.3512 47.9336 11.5864C47.5709 12.1333 47.0987 12.5551 46.4715 12.7892C44.7095 13.4468 42.8026 12.3494 42.5031 10.505C42.2462 8.92246 43.3819 7.38977 44.9735 7.16694C45.1209 7.14631 45.2682 7.14305 45.4187 7.12976Z" fill="white"/>
<path fill-rule="evenodd" clip-rule="evenodd" d="M40 9.99994C40 15.5228 35.5229 20 30.0001 20C24.4772 20 20 15.5228 20 9.99994C20 4.47712 24.4772 0 30.0001 0C35.5228 0 40 4.47712 40 9.99994ZM30.2642 12.4668V8.49947L34.0505 10.213L30.2642 12.4668ZM26.1797 11.8076L29.2631 16.175V13.6379L26.1797 11.8076ZM29.2631 12.4653L25.4951 10.2132L29.2631 8.50111V12.4653ZM25.675 9.03363L29.2636 7.403V3.05464L25.675 9.03363ZM30.2637 16.18V13.6383L33.3653 11.8047L30.2637 16.18ZM30.2635 3.04792V7.40202L33.8715 9.03481L30.2635 3.04792Z" fill="white"/>
<path d="M19.5 9.99994C19.5 15.2467 15.2468 19.5 10.0001 19.5C4.75329 19.5 0.5 15.2467 0.5 9.99994C0.5 4.75327 4.75329 0.5 10.0001 0.5C15.2467 0.5 19.5 4.75327 19.5 9.99994Z" stroke="white"/>
<path d="M9.35843 13.0342L10.0715 10.5885L11.7597 10.0267L12.1796 8.58934L12.1652 8.55369L10.5035 9.10669L11.7008 5H8.30515L6.73933 10.3593L5.43198 10.7944L5 12.2762L6.30635 11.8415L5.3835 15H14.4206L15 13.0342L9.35843 13.0342Z" fill="white"/>
</g>
<defs>
<clipPath id="clip0">
<rect width="80" height="20" fill="white"/>
</clipPath>
</defs>
</svg>
